<svg xmlns="http://www.w3.org/2000/svg" viewBox="0 0 720 900" role="img">
  <rect width="720" height="900" fill="#020617"/>
  <g stroke="#0f172a" stroke-width="1">
    <path d="M 0 50 H 720"/>
    <path d="M 0 100 H 720"/>
    <path d="M 0 150 H 720"/>
    <path d="M 0 200 H 720"/>
    <path d="M 0 250 H 720"/>
    <path d="M 0 300 H 720"/>
    <path d="M 0 350 H 720"/>
    <path d="M 0 400 H 720"/>
    <path d="M 0 450 H 720"/>
    <path d="M 0 500 H 720"/>
    <path d="M 0 550 H 720"/>
    <path d="M 0 600 H 720"/>
    <path d="M 0 650 H 720"/>
    <path d="M 0 700 H 720"/>
    <path d="M 0 750 H 720"/>
    <path d="M 0 800 H 720"/>
    <path d="M 0 850 H 720"/>
    <path d="M 50 0 V 900"/>
    <path d="M 100 0 V 900"/>
    <path d="M 150 0 V 900"/>
    <path d="M 200 0 V 900"/>
    <path d="M 250 0 V 900"/>
    <path d="M 300 0 V 900"/>
    <path d="M 350 0 V 900"/>
    <path d="M 400 0 V 900"/>
    <path d="M 450 0 V 900"/>
    <path d="M 500 0 V 900"/>
    <path d="M 550 0 V 900"/>
    <path d="M 600 0 V 900"/>
    <path d="M 650 0 V 900"/>
  </g>
  <rect x="26" y="26" width="668" height="848" fill="none" stroke="#1e293b"/>
  <text x="40" y="66" font-family="monospace" font-size="15" fill="#f59e0b" font-weight="700">RETIE-007</text>
  <text x="694" y="66" text-anchor="end" font-family="monospace" font-size="13" fill="#475569">Fundamentos y disposiciones generales</text>
  <text x="40" y="118" font-family="'Space Grotesk',sans-serif" font-size="28" font-weight="700" fill="#e2e8f0">Diagrama de conexión del medidor y aco</text><text x="40" y="152" font-family="'Space Grotesk',sans-serif" font-size="28" font-weight="700" fill="#e2e8f0">metida</text>
  <rect x="40" y="172" width="640" height="2" fill="#1e293b"/>
  <path d="M 130 470 H 620" stroke="#f59e0b" stroke-width="2.5"/><circle cx="130" cy="470" r="34" stroke="#f59e0b" stroke-width="2.5" fill="none"/><text x="130" y="458" text-anchor="middle" font-family="monospace" font-size="20" fill="#f59e0b">G</text><path d="M 112 468 h36 M 116 477 h28 M 120 486 h20" stroke="#f59e0b" stroke-width="2" fill="none"/><rect x="278" y="458" width="44" height="24" rx="3" stroke="#f59e0b" stroke-width="2.5" fill="rgba(2,6,23,0.6)"/><text x="300" y="474" text-anchor="middle" font-family="monospace" font-size="11" fill="#f59e0b">Q1</text><path d="M 440 470 v60" stroke="#f59e0b" stroke-width="2.5"/><rect x="410" y="574" width="60" height="32" rx="3" stroke="#f59e0b" stroke-width="2.5" fill="none"/><path d="M 430 566 v16 M 450 566 v16 M 422 574 v-8 h36 v8" stroke="#f59e0b" stroke-width="2" fill="none"/><path d="M 440 622 v24" stroke="#f59e0b" stroke-width="2.5"/><path d="M 426 662 h70" stroke="#f59e0b" stroke-width="2.5" fill="none"/><path d="M 432 670 h58" stroke="#f59e0b" stroke-width="2" fill="none"/><path d="M 438 678 h46" stroke="#f59e0b" stroke-width="2" fill="none"/><path d="M 444 686 h34" stroke="#f59e0b" stroke-width="2" fill="none"/><text x="440" y="458" text-anchor="middle" font-family="monospace" font-size="11" fill="#64748b">BT46</text>
  <g stroke="#1e293b" stroke-width="1">
    <path d="M 26 780 H 694"/>
  </g>
  <text x="40" y="810" font-family="monospace" font-size="13" fill="#64748b">Conexión eléctrica del equipo de medida, sellos, cables y referencias no</text><text x="40" y="832" font-family="monospace" font-size="13" fill="#64748b">rmativas de la acometida.</text>
  <text x="40" y="870" font-family="monospace" font-size="11" fill="#475569">CURSO GRATIS RETIE · DIAGRAMA 007/100</text>
  <text x="694" y="870" text-anchor="end" font-family="monospace" font-size="11" fill="#f59e0b">BLOQUE 1</text>
</svg>
