<svg xmlns="http://www.w3.org/2000/svg" viewBox="0 0 720 900" role="img">
  <rect width="720" height="900" fill="#020617"/>
  <g stroke="#0f172a" stroke-width="1">
    <path d="M 0 50 H 720"/>
    <path d="M 0 100 H 720"/>
    <path d="M 0 150 H 720"/>
    <path d="M 0 200 H 720"/>
    <path d="M 0 250 H 720"/>
    <path d="M 0 300 H 720"/>
    <path d="M 0 350 H 720"/>
    <path d="M 0 400 H 720"/>
    <path d="M 0 450 H 720"/>
    <path d="M 0 500 H 720"/>
    <path d="M 0 550 H 720"/>
    <path d="M 0 600 H 720"/>
    <path d="M 0 650 H 720"/>
    <path d="M 0 700 H 720"/>
    <path d="M 0 750 H 720"/>
    <path d="M 0 800 H 720"/>
    <path d="M 0 850 H 720"/>
    <path d="M 50 0 V 900"/>
    <path d="M 100 0 V 900"/>
    <path d="M 150 0 V 900"/>
    <path d="M 200 0 V 900"/>
    <path d="M 250 0 V 900"/>
    <path d="M 300 0 V 900"/>
    <path d="M 350 0 V 900"/>
    <path d="M 400 0 V 900"/>
    <path d="M 450 0 V 900"/>
    <path d="M 500 0 V 900"/>
    <path d="M 550 0 V 900"/>
    <path d="M 600 0 V 900"/>
    <path d="M 650 0 V 900"/>
  </g>
  <rect x="26" y="26" width="668" height="848" fill="none" stroke="#1e293b"/>
  <text x="40" y="66" font-family="monospace" font-size="15" fill="#f472b6" font-weight="700">RETIE-080</text>
  <text x="694" y="66" text-anchor="end" font-family="monospace" font-size="13" fill="#475569">Generación, renovables y movilidad eléctrica</text>
  <text x="40" y="118" font-family="'Space Grotesk',sans-serif" font-size="28" font-weight="700" fill="#e2e8f0">Puesta a tierra de sistemas de generac</text><text x="40" y="152" font-family="'Space Grotesk',sans-serif" font-size="28" font-weight="700" fill="#e2e8f0">ión</text>
  <rect x="40" y="172" width="640" height="2" fill="#1e293b"/>
  <path d="M 130 470 H 620" stroke="#f472b6" stroke-width="2.5"/><circle cx="130" cy="470" r="34" stroke="#f472b6" stroke-width="2.5" fill="none"/><text x="130" y="458" text-anchor="middle" font-family="monospace" font-size="20" fill="#f472b6">G</text><path d="M 112 468 h36 M 116 477 h28 M 120 486 h20" stroke="#f472b6" stroke-width="2" fill="none"/><circle cx="204" cy="470" r="14" stroke="#f472b6" stroke-width="2.5" fill="none"/><circle cx="236" cy="470" r="14" stroke="#f472b6" stroke-width="2.5" fill="none"/><text x="220" y="450" text-anchor="middle" font-family="monospace" font-size="9" fill="#f472b6">TR</text><rect x="278" y="458" width="44" height="24" rx="3" stroke="#f472b6" stroke-width="2.5" fill="rgba(2,6,23,0.6)"/><text x="300" y="474" text-anchor="middle" font-family="monospace" font-size="11" fill="#f472b6">Q1</text>
  <g stroke="#1e293b" stroke-width="1">
    <path d="M 26 780 H 694"/>
  </g>
  <text x="40" y="810" font-family="monospace" font-size="13" fill="#64748b">Aterramiento de marcos, inversores y baterías para fallas de aislamiento</text><text x="40" y="832" font-family="monospace" font-size="13" fill="#64748b"> DC.</text>
  <text x="40" y="870" font-family="monospace" font-size="11" fill="#475569">CURSO GRATIS RETIE · DIAGRAMA 080/100</text>
  <text x="694" y="870" text-anchor="end" font-family="monospace" font-size="11" fill="#f472b6">BLOQUE 8</text>
</svg>
